<?xml version="1.0" encoding="UTF-8" standalone="no"?>
<!-- Created with Inkscape (http://www.inkscape.org/) -->

<svg
   xmlns:dc="http://purl.org/dc/elements/1.1/"
   xmlns:cc="http://creativecommons.org/ns#"
   xmlns:rdf="http://www.w3.org/1999/02/22-rdf-syntax-ns#"
   xmlns:svg="http://www.w3.org/2000/svg"
   xmlns="http://www.w3.org/2000/svg"
   version="1.1"
   width="1024"
   height="275"
   id="svg8376">
  <defs
     id="defs8378">
    <clipPath
       id="clipPath8280">
      <path
         d="m 454.081,777.401 107.178,0 0,27.638 -107.178,0 0,-27.638 z"
         id="path8282" />
    </clipPath>
  </defs>
  <metadata
     id="metadata8381">
    <rdf:RDF>
      <cc:Work
         rdf:about="">
        <dc:format>image/svg+xml</dc:format>
        <dc:type
           rdf:resource="http://purl.org/dc/dcmitype/StillImage" />
        <dc:title></dc:title>
      </cc:Work>
    </rdf:RDF>
  </metadata>
  <g
     transform="translate(0,-493)"
     id="layer1">
    <g
       transform="matrix(9.3654361,0,0,-9.3654361,-4242.551,8040.1247)"
       id="g8276">
      <g
         clip-path="url(#clipPath8280)"
         id="g8278">
        <g
           transform="matrix(0.0267944,0,0,-0.0243835,507.67056,791.22046)"
           id="g8284">
          <g
             transform="translate(-1858.0898,-406.9961)"
             id="g8286">
            <path
               d="m 0,0 c 23.5,-133.055 103.328,-159.664 167.5,-159.664 126.797,0 154.984,73.57 219.164,273.937 l 123.649,383.516 3.148,0 123.648,-383.516 c 64.188,-200.367 92.367,-273.937 219.164,-273.937 64.18,0 144.008,26.609 167.477,159.664 l 100.203,572.922 c 20.344,115.844 42.266,242.625 42.266,280.203 0,56.352 -43.828,120.531 -118.969,120.531 -114.281,0 -134.625,-81.398 -147.149,-167.492 l -75.132,-494.656 -3.149,0 -170.625,547.883 c -25.039,81.39 -62.601,114.265 -139.32,114.265 -76.695,0 -114.25,-32.875 -139.312,-114.265 l -170.61,-547.883 -3.14,0 -75.141,494.656 c -12.516,86.094 -32.867,167.492 -147.141,167.492 -75.14,0 -118.969,-64.179 -118.969,-120.531 0,-37.578 21.915,-164.359 42.266,-280.203 L 0,0 z"
               id="path8288"
               style="fill:#000000;fill-opacity:1;fill-rule:nonzero;stroke:none" />
          </g>
        </g>
        <g
           transform="matrix(0.0267944,0,0,-0.0243835,507.67056,791.22046)"
           id="g8290">
          <g
             transform="translate(-321.6368,432.0429)"
             id="g8292">
            <path
               d="m 0,0 c 0,89.227 -53.227,134.617 -126.797,134.617 -73.578,0 -126.797,-45.39 -126.797,-134.617 l 0,-864.086 c 0,-89.219 53.219,-134.617 126.797,-134.617 73.57,0 126.797,45.398 126.797,134.617 L 0,0 z"
               id="path8294"
               style="fill:#000000;fill-opacity:1;fill-rule:nonzero;stroke:none" />
          </g>
        </g>
        <g
           transform="matrix(0.0267944,0,0,-0.0243835,507.67056,791.22046)"
           id="g8296">
          <g
             transform="translate(-180.5273,-313.0743)"
             id="g8298">
            <path
               d="m 0,0 c -7.828,-32.875 -25.063,-87.656 -25.063,-129.922 0,-67.312 50.102,-123.664 126.797,-123.664 82.969,0 117.407,50.086 131.508,112.703 l 129.922,601.102 3.125,0 183.148,-583.883 c 31.305,-97.055 75.133,-129.922 142.454,-129.922 67.312,0 111.14,32.867 142.445,129.922 l 183.148,583.883 3.125,0 129.938,-601.102 c 14.078,-62.617 48.516,-112.703 131.484,-112.703 76.703,0 126.797,56.352 126.797,123.664 0,42.266 -17.226,97.047 -25.062,129.922 L 1214.727,690.328 C 1184.984,812.43 1158.359,879.734 1036.266,879.734 939.219,879.734 886,831.211 856.25,740.422 l -162.797,-510.313 -3.141,0 -162.796,510.313 C 497.773,831.211 444.547,879.734 347.5,879.734 225.406,879.734 198.789,812.43 169.063,690.328 L 0,0 z"
               id="path8300"
               style="fill:#000000;fill-opacity:1;fill-rule:nonzero;stroke:none" />
          </g>
        </g>
        <g
           transform="matrix(0.0267944,0,0,-0.0243835,507.67056,791.22046)"
           id="g8302">
          <g
             transform="translate(1349.3319,-430.4727)"
             id="g8304">
            <path
               d="m 0,0 c 0,-81.398 61.063,-126.797 126.797,-126.797 l 388.203,0 c 79.844,0 126.797,46.961 126.797,117.399 0,73.57 -46.953,117.406 -126.797,117.406 l -261.406,0 0,201.93 239.5,0 c 79.844,0 126.797,45.398 126.797,117.414 0,72 -46.953,117.39 -126.797,117.39 l -239.5,0 0,208.188 270.805,0 c 79.843,0 126.796,43.843 126.796,117.406 0,70.453 -46.953,117.406 -126.796,117.406 l -397.602,0 C 61.063,987.742 0,942.352 0,860.953 L 0,0 z"
               id="path8306"
               style="fill:#000000;fill-opacity:1;fill-rule:nonzero;stroke:none" />
          </g>
        </g>
      </g>
    </g>
  </g>
</svg>
